# xmcd
#
# Track frame offsets:
#	150
#	23592
#	62657
#	82115
#	101315
#	122260
#	143352
#	164130
#	188632
#	205940
#	221575
#	240862
#	273915
#	295287
#	313710
#
# Disc length: 4475 seconds
#
# Revision: 1
# Processed by: cddbd v1.5.1PL0 Copyright (c) Steve Scherf et al.
# Submitted via: CDex 1.50Beta5
#
DISCID=c911790f
DTITLE=浜田省吾 - GOLDEN J-POP 1991〜92
DYEAR=1997
DGENRE=
TTITLE0=浜田省吾/悲しみは雪のように
TTITLE1=X/Say Anything
TTITLE2=尾崎豊/I LOVE YOU
TTITLE3=TUBE/ガラスのメモリーズ
TTITLE4=米米CLUB/君がいるだけで
TTITLE5=ユニコーン/ヒゲとボイン
TTITLE6=小野正利/You’re the Only…
TTITLE7=TMN/LOVE TRAIN
TTITLE8=爆風スランプ/涙2
TTITLE9=東京スカパラダイスオーケストラ/ホールインワン
TTITLE10=米米CLUB/Shake Hip!
TTITLE11=X/Silent Jealousy
TTITLE12=TUBE/夏だね
TTITLE13=東京パフォーマンスドール/WEEKEND PARADISE
TTITLE14=鈴木雅之/もう涙はいらない
EXTD=
EXTT0=
EXTT1=
EXTT2=
EXTT3=
EXTT4=
EXTT5=
EXTT6=
EXTT7=
EXTT8=
EXTT9=
EXTT10=
EXTT11=
EXTT12=
EXTT13=
EXTT14=
PLAYORDER=
